<?xml version="1.0" standalone="no"?>
<!DOCTYPE svg PUBLIC "-//W3C//DTD SVG 20010904//EN"
 "http://www.w3.org/TR/2001/REC-SVG-20010904/DTD/svg10.dtd">
<svg version="1.0" xmlns="http://www.w3.org/2000/svg"
 width="200.000000pt" height="200.000000pt" viewBox="0 0 200.000000 200.000000"
 preserveAspectRatio="xMidYMid meet">

<g transform="translate(0.000000,200.000000) scale(0.100000,-0.100000)"
fill="#000000" stroke="none">
<path d="M815 1625 c-33 -7 -89 -26 -125 -43 l-65 -30 51 -1 c43 -1 66 7 135
44 46 24 80 44 74 44 -5 0 -37 -6 -70 -14z"/>
<path d="M1042 1619 c-145 -21 -268 -86 -377 -200 -254 -265 -228 -673 58
-910 128 -107 276 -154 457 -146 177 8 328 71 452 187 l58 56 0 220 c0 182 -3
223 -16 242 -15 22 -18 22 -259 22 -293 0 -275 10 -275 -142 0 -129 8 -138
120 -138 l80 0 0 -39 c0 -36 -3 -40 -47 -62 -39 -19 -65 -23 -138 -23 -79 -1
-97 2 -147 27 -70 34 -131 102 -154 169 -22 68 -16 197 13 253 54 104 159 167
276 167 102 0 171 -28 239 -97 74 -76 84 -75 191 33 64 65 87 94 87 113 0 60
-168 197 -292 238 -118 38 -207 47 -326 30z m309 -610 c16 -16 20 -29 16 -54
-5 -28 0 -38 37 -74 56 -55 84 -55 129 2 19 23 37 53 39 67 4 31 51 42 62 14
7 -18 -9 -44 -28 -44 -6 0 -28 -22 -48 -48 -27 -37 -33 -53 -26 -65 13 -24 0
-56 -27 -69 -27 -12 -35 -42 -21 -76 13 -31 -15 -62 -42 -46 -22 15 -26 38 -9
55 22 23 29 65 12 79 -8 7 -15 27 -15 46 0 27 -8 40 -45 71 -32 26 -54 37 -71
35 -39 -5 -74 23 -74 60 0 63 67 91 111 47z"/>
<path d="M518 1470 l-33 -29 59 -1 c51 0 63 4 93 30 l34 30 -60 0 c-53 0 -65
-4 -93 -30z"/>
<path d="M427 1368 c-14 -18 -32 -48 -41 -65 l-17 -33 63 0 63 1 35 57 c19 31
37 60 38 64 2 5 -23 8 -57 8 -56 0 -62 -2 -84 -32z"/>
<path d="M335 1178 c-23 -78 -23 -78 48 -78 l64 0 11 48 c6 26 14 55 17 65 6
15 0 17 -59 17 l-65 0 -16 -52z"/>
<path d="M312 998 l3 -63 63 -3 62 -3 0 66 0 65 -65 0 -66 0 3 -62z"/>
<path d="M331 853 c24 -91 26 -93 88 -93 l57 0 -16 65 -15 65 -62 0 -61 0 9
-37z"/>
<path d="M397 693 c9 -16 30 -45 46 -65 26 -35 33 -38 77 -38 l48 0 -36 65
-37 64 -58 1 -57 0 17 -27z"/>
<path d="M555 514 c39 -34 155 -96 205 -110 16 -4 4 9 -35 38 -33 25 -73 59
-89 77 -25 26 -37 31 -75 31 l-46 -1 40 -35z"/>
</g>
</svg>
